<svg width="601" height="668" viewBox="0 0 601 668" fill="none" xmlns="http://www.w3.org/2000/svg">
<path d="M34 167.333C34 104.479 34 73.0523 53.5263 53.5263C73.0523 34 104.479 34 167.333 34H434C496.853 34 528.28 34 547.807 53.5263C567.333 73.0523 567.333 104.479 567.333 167.333V434C567.333 528.28 567.333 575.42 538.043 604.71C508.753 634 461.613 634 367.333 634H234C139.719 634 92.5787 634 63.2893 604.71C34 575.42 34 528.28 34 434V167.333Z" stroke="#9333EA" stroke-width="66.6667"/>
<path d="M400.667 534V634M200.667 534V634" stroke="#9333EA" stroke-width="66.6667" stroke-linecap="round"/>
<path d="M200.667 200.667H400.667" stroke="#9333EA" stroke-width="66.6667" stroke-linecap="round"/>
<path d="M200.667 334H400.667" stroke="#9333EA" stroke-width="66.6667" stroke-linecap="round"/>
</svg>
