<svg width="667" height="667" viewBox="0 0 667 667" fill="none" xmlns="http://www.w3.org/2000/svg">
<path d="M502.494 71.8603L506.254 83.3397H518.333H566.667C588.768 83.3397 609.964 92.1194 625.592 107.747C641.22 123.375 650 144.572 650 166.673V566.673C650 588.774 641.22 609.971 625.592 625.599C609.964 641.227 588.768 650.006 566.667 650.006H100C77.8986 650.006 56.7025 641.227 41.0744 625.599C25.4464 609.971 16.6667 588.774 16.6667 566.673V166.673C16.6667 144.572 25.4464 123.375 41.0744 107.747C56.7025 92.1194 77.8986 83.3397 100 83.3397H147.667H159.574L163.433 72.0754C166.916 61.9128 172.271 52.4931 179.221 44.3035C187.119 35.5135 196.797 28.5032 207.613 23.7386C218.488 18.9477 230.263 16.5382 242.146 16.6719L242.24 16.673H242.333H425H425.039L425.077 16.6728C436.867 16.6182 448.534 19.0659 459.308 23.8543C469.979 28.597 479.534 35.5291 487.352 44.1998C494.061 52.407 499.195 61.7847 502.494 71.8603ZM242.333 50.0063H242.323L242.312 50.0063C235.213 50.0153 228.197 51.536 221.731 54.4672C215.294 57.3854 209.549 61.635 204.875 66.9354C200.188 72.1704 196.656 78.3349 194.511 85.027C192.357 91.7489 191.65 98.8508 192.437 105.866L192.449 105.97L192.462 106.074L209.12 239.339C209.122 239.352 209.123 239.365 209.125 239.377C210.606 251.558 216.515 262.769 225.728 270.876C234.932 278.976 246.791 283.411 259.05 283.34H279H289.501L294.034 273.867L345.735 165.825C347.835 162.374 351.12 159.797 354.986 158.585C359.007 157.324 363.356 157.632 367.159 159.449C370.961 161.266 373.934 164.456 375.48 168.376C376.966 172.149 377.025 176.328 375.655 180.133L337.945 259.522L326.632 283.34H353H407.616C419.875 283.411 431.734 278.976 440.939 270.876C450.152 262.768 456.062 251.555 457.542 239.373C457.544 239.362 457.545 239.35 457.546 239.339L474.205 106.074L474.218 105.97L474.229 105.866C475.017 98.8508 474.31 91.7489 472.155 85.027C470.011 78.3349 466.479 72.1704 461.792 66.9354C457.118 61.635 451.373 57.3854 444.935 54.4672C438.47 51.536 431.454 50.0153 424.354 50.0063L424.344 50.0063H424.333H242.333ZM162.205 131.278L160.385 116.673H145.667H100C86.7392 116.673 74.0215 121.941 64.6447 131.318C55.2679 140.694 50 153.412 50 166.673V566.673C50 579.934 55.2678 592.652 64.6447 602.028C74.0215 611.405 86.7392 616.673 100 616.673H566.667C579.927 616.673 592.645 611.405 602.022 602.028C611.399 592.651 616.667 579.934 616.667 566.673V166.673C616.667 153.412 611.399 140.694 602.022 131.318C592.645 121.941 579.927 116.673 566.667 116.673H521H506.107L504.438 131.472L491.783 243.706C489.246 263.948 479.372 282.556 464.031 296.005C448.667 309.474 428.891 316.829 408.461 316.673L408.397 316.673H408.333H259.667H259.603L259.539 316.673C239.109 316.829 219.333 309.474 203.969 296.005C188.606 282.537 178.725 263.893 176.206 243.618L176.205 243.612L162.205 131.278ZM266.667 483.34H400C404.42 483.34 408.66 485.096 411.785 488.221C414.911 491.347 416.667 495.586 416.667 500.006C416.667 504.427 414.911 508.666 411.785 511.791C408.659 514.917 404.42 516.673 400 516.673H266.667C262.246 516.673 258.007 514.917 254.882 511.791C251.756 508.666 250 504.427 250 500.006C250 495.586 251.756 491.347 254.882 488.221C258.007 485.096 262.246 483.34 266.667 483.34Z" fill="black" stroke="#9333EA" stroke-width="33.3333"/>
</svg>
