<svg width="700" height="700" viewBox="0 0 700 700" fill="none" xmlns="http://www.w3.org/2000/svg">
<path d="M116.164 566.161C118.508 563.817 121.687 562.5 125.003 562.5H275.003C278.318 562.5 281.497 563.817 283.841 566.161C286.186 568.505 287.503 571.685 287.503 575C287.503 578.315 286.186 581.494 283.841 583.838C281.497 586.183 278.317 587.5 275.003 587.5H125.003C121.688 587.5 118.509 586.183 116.164 583.838C113.82 581.494 112.503 578.315 112.503 575C112.503 571.685 113.82 568.505 116.164 566.161Z" fill="black" stroke="#9333EA" stroke-width="25"/>
<path d="M12.5 177.502V674.997C12.5 674.998 12.5 674.998 12.5 674.998C12.5007 678.314 13.8179 681.493 16.1615 683.837C18.5051 686.181 21.6843 687.498 25 687.498L12.5 177.502ZM12.5 177.502L12.6274 177.029L12.6484 175.46C12.6726 173.652 13.0892 171.87 13.8691 170.238L88.8316 19.4343C88.832 19.4335 88.8324 19.4327 88.8328 19.4319C89.8682 17.3515 91.4623 15.6013 93.4367 14.377C95.4106 13.153 97.687 12.5029 100.01 12.5H599.995C602.318 12.5032 604.594 13.1532 606.567 14.3771C608.541 15.601 610.135 17.3502 611.17 19.429C611.171 19.4303 611.171 19.4317 611.172 19.4331L686.17 170.308L686.176 170.32L686.182 170.331C687.04 172.048 687.491 173.94 687.5 175.859C687.5 175.864 687.5 175.869 687.5 175.874L687.5 175.878V674.997C687.5 674.998 687.5 674.998 687.5 674.998C687.499 678.313 686.182 681.493 683.838 683.837C681.494 686.181 678.315 687.498 675 687.498C675 687.498 674.999 687.498 674.999 687.498H25.0012L12.5 177.502ZM115.433 37.5H107.684L104.237 44.4402L54.1396 145.319L45.1709 163.379H65.3351H254.3H264.936L266.639 152.88L282.996 52.0007L285.347 37.5H270.657H115.433ZM321.243 37.5H310.602L308.904 48.0051L292.595 148.884L290.252 163.379H304.935H445.657H460.418L457.987 148.82L441.141 47.9411L439.397 37.5H428.812H321.243ZM479.495 37.5H464.735L467.166 52.0589L484.012 152.938L485.755 163.379H496.341H634.671H654.844L645.864 145.315L595.718 44.4359L592.27 37.5H584.525H479.495ZM50.0031 188.379H37.5031V200.879V650V662.5H50.0031H650.003H662.503V650V200.879V188.379H650.003H500.003H487.503V200.879V449.995C487.503 449.997 487.503 449.998 487.503 450C487.501 452.47 486.768 454.884 485.394 456.938C484.02 458.994 482.068 460.595 479.785 461.541C477.5 462.487 474.988 462.735 472.564 462.253C470.141 461.771 467.914 460.583 466.166 458.837C466.165 458.836 466.164 458.835 466.163 458.834L383.842 376.513L375.003 367.674L366.164 376.513L283.843 458.834C283.842 458.835 283.841 458.836 283.84 458.837C282.092 460.583 279.865 461.771 277.442 462.253C275.018 462.735 272.506 462.487 270.221 461.541C267.938 460.595 265.986 458.994 264.612 456.938C263.239 454.884 262.505 452.47 262.503 450C262.503 449.998 262.503 449.997 262.503 449.995V200.879V188.379H250.003H50.0031ZM300.003 188.379H287.503V200.879V389.648V419.826L308.842 398.487L366.164 341.165C366.165 341.164 366.165 341.164 366.166 341.163C368.511 338.82 371.689 337.505 375.003 337.505C378.317 337.505 381.495 338.82 383.84 341.163C383.841 341.164 383.841 341.164 383.842 341.165L441.164 398.487L462.503 419.826V389.648V200.879V188.379H450.003H300.003Z" fill="black" stroke="#9333EA" stroke-width="25"/>
</svg>
